<?xml version="1.0" encoding="UTF-8"?>
<svg id="Layer_2" data-name="Layer 2" xmlns="http://www.w3.org/2000/svg" xmlns:xlink="http://www.w3.org/1999/xlink" viewBox="0 0 188.62 78.91">
  <defs>
    <style>
      .cls-1 {
        fill: url(#linear-gradient);
      }

      .cls-2 {
        fill: #3953a4;
      }
    </style>
    <linearGradient id="linear-gradient" x1="6.61" y1="58.41" x2="82.22" y2="14.77" gradientUnits="userSpaceOnUse">
      <stop offset="0" stop-color="#202e68"/>
      <stop offset=".07" stop-color="#243472"/>
      <stop offset=".25" stop-color="#2e4288"/>
      <stop offset=".45" stop-color="#344c97"/>
      <stop offset=".68" stop-color="#3852a1"/>
      <stop offset="1" stop-color="#3a54a4"/>
    </linearGradient>
  </defs>
  <g id="Layer_1-2" data-name="Layer 1">
    <g>
      <g>
        <path class="cls-2" d="M90.56,56.12V8.11h9.05v48.02h-9.05ZM95.12,56.12v-8.72h11.53c2.97,0,5.27-.72,6.9-2.16,1.63-1.44,2.44-3.46,2.44-6.06v-14.13c0-2.62-.81-4.65-2.44-6.08-1.63-1.43-3.93-2.15-6.9-2.15h-11.53v-8.72h11.33c6.03,0,10.69,1.5,13.99,4.51,3.29,3,4.94,7.24,4.94,12.7v13.61c0,3.41-.7,6.41-2.11,9s-3.52,4.6-6.32,6.04c-2.81,1.44-6.31,2.16-10.52,2.16h-11.29Z"/>
        <path class="cls-2" d="M142.46,8.11v48.02h-9.38V8.11h9.38Z"/>
        <path class="cls-2" d="M151.83,56.09V8.11h11.06l17.87,36.79-.79.86V8.11h8.65v47.98h-11.13l-17.8-36.23.79-.86v37.09h-8.65Z"/>
      </g>
      <g>
        <path d="M100.48,65.72h-2.29v-.83h5.57v.83h-2.3v6.69h-.98v-6.69Z"/>
        <path d="M105.71,65c.49-.1,1.19-.16,1.86-.16,1.04,0,1.71.19,2.17.61.38.33.59.85.59,1.43,0,.99-.62,1.65-1.42,1.92v.03c.58.2.93.74,1.1,1.52.25,1.05.42,1.77.58,2.06h-1c-.12-.21-.29-.86-.5-1.8-.22-1.04-.62-1.43-1.51-1.46h-.91v3.26h-.97v-7.42ZM106.68,68.42h.99c1.04,0,1.7-.57,1.7-1.43,0-.97-.7-1.39-1.73-1.41-.47,0-.8.04-.96.09v2.74Z"/>
        <path d="M114.1,70.05l-.78,2.36h-1l2.55-7.52h1.17l2.57,7.52h-1.04l-.8-2.36h-2.67ZM116.57,69.29l-.74-2.16c-.17-.49-.28-.94-.39-1.37h-.02c-.11.45-.23.9-.38,1.36l-.74,2.17h2.26Z"/>
        <path d="M121.89,72.41l-2.45-7.52h1.05l1.17,3.7c.32,1.01.6,1.93.8,2.81h.02c.21-.87.52-1.82.86-2.8l1.27-3.71h1.04l-2.69,7.52h-1.07Z"/>
        <path d="M131.47,68.89h-2.92v2.71h3.26v.81h-4.23v-7.52h4.06v.81h-3.09v2.38h2.92v.8Z"/>
        <path d="M134.18,64.9h.97v6.7h3.21v.81h-4.18v-7.52Z"/>
        <path d="M149.76,72.08c-.43.16-1.29.41-2.31.41-1.14,0-2.07-.29-2.81-.99-.65-.62-1.05-1.63-1.05-2.8.01-2.24,1.55-3.88,4.07-3.88.87,0,1.55.19,1.87.35l-.23.79c-.4-.18-.9-.32-1.66-.32-1.83,0-3.02,1.14-3.02,3.02s1.15,3.03,2.9,3.03c.64,0,1.07-.09,1.29-.2v-2.24h-1.53v-.78h2.48v3.61Z"/>
        <path d="M152.36,65c.49-.1,1.19-.16,1.86-.16,1.04,0,1.71.19,2.17.61.38.33.59.85.59,1.43,0,.99-.62,1.65-1.42,1.92v.03c.58.2.93.74,1.1,1.52.25,1.05.42,1.77.58,2.06h-1c-.12-.21-.29-.86-.5-1.8-.22-1.04-.62-1.43-1.51-1.46h-.91v3.26h-.97v-7.42ZM153.33,68.42h.99c1.04,0,1.7-.57,1.7-1.43,0-.97-.7-1.39-1.73-1.41-.47,0-.8.04-.96.09v2.74Z"/>
        <path d="M165.93,68.58c0,2.59-1.57,3.96-3.49,3.96s-3.38-1.54-3.38-3.82c0-2.39,1.48-3.95,3.49-3.95s3.38,1.57,3.38,3.8ZM160.1,68.7c0,1.61.87,3.04,2.4,3.04s2.41-1.42,2.41-3.12c0-1.5-.78-3.06-2.4-3.06s-2.41,1.48-2.41,3.13Z"/>
        <path d="M169.28,64.9v4.45c0,1.68.75,2.4,1.75,2.4,1.12,0,1.83-.74,1.83-2.4v-4.45h.98v4.38c0,2.31-1.22,3.26-2.84,3.26-1.54,0-2.7-.88-2.7-3.21v-4.43h.98Z"/>
        <path d="M176.64,64.99c.47-.08,1.08-.15,1.86-.15.96,0,1.66.22,2.11.62.41.36.66.9.66,1.57s-.2,1.22-.58,1.61c-.51.55-1.35.83-2.3.83-.29,0-.56-.01-.78-.07v3.01h-.97v-7.43ZM177.61,68.61c.21.06.48.08.8.08,1.17,0,1.88-.57,1.88-1.61s-.7-1.47-1.77-1.47c-.42,0-.75.03-.91.08v2.92Z"/>
      </g>
      <path class="cls-1" d="M66.56,0H12.35C5.53,0,0,5.53,0,12.35v33.23c.91,7.31,10.24,10.43,15.62,5.55,6.91-6.98,13.82-13.97,20.73-20.95.15-.18.22-.38.14-.52-.01-.03-.03-.06-.07-.08-4.53-2.77-9.06-5.53-13.58-8.3l3.35-3.36c5.48,1.79,10.96,3.57,16.44,5.36.06.01.17.03.3,0,.18-.05.29-.16.33-.21,2-2.18,4.01-4.35,6.01-6.53.06-.07,1.44-1.57,3.36-1.18,1.07.21,2.13.97,2.5,2.07.06.17.36,1.08-.03,2.02-.08.18-.16.32-.23.42-2.3,2.28-4.6,4.56-6.91,6.83-.15.1-.6.44-.69,1.02-.02.13-.02.24,0,.35,1.73,5.38,3.46,10.76,5.2,16.15l-3.35,3.34-8.3-13.58c-.47-.27-1.01.55-1.35.9-5.39,5.52-12.16,11.85-16.95,17.71-8.79,10.76-1.73,25.08,11.29,26.32h32.75c6.82,0,12.35-5.53,12.35-12.35V12.35c0-6.82-5.53-12.35-12.35-12.35Z"/>
    </g>
  </g>
</svg>