<?xml version="1.0" encoding="UTF-8"?>
<svg id="Layer_2" data-name="Layer 2" xmlns="http://www.w3.org/2000/svg" xmlns:xlink="http://www.w3.org/1999/xlink" viewBox="0 0 468.63 77.6">
  <defs>
    <style>
      .cls-1 {
        fill: #112849;
      }

      .cls-2 {
        fill: url(#Namnlös_övertoning_13-2);
      }

      .cls-3 {
        fill: url(#Namnlös_övertoning_13-3);
      }

      .cls-4 {
        fill: url(#Namnlös_övertoning_13);
      }
    </style>
    <linearGradient id="Namnlös_övertoning_13" data-name="Namnlös övertoning 13" x1="9.05" y1="67.72" x2="19.79" y2="67.72" gradientUnits="userSpaceOnUse">
      <stop offset="0" stop-color="#0b1c36"/>
      <stop offset="1" stop-color="#163c68"/>
    </linearGradient>
    <linearGradient id="Namnlös_övertoning_13-2" data-name="Namnlös övertoning 13" x1="0" y1="25.75" x2="49.16" y2="25.75" xlink:href="#Namnlös_övertoning_13"/>
    <linearGradient id="Namnlös_övertoning_13-3" data-name="Namnlös övertoning 13" x1="3.33" y1="48.42" x2="32.3" y2="48.42" xlink:href="#Namnlös_övertoning_13"/>
  </defs>
  <g id="Lager_1" data-name="Lager 1">
    <g>
      <path class="cls-1" d="M63.11,63.25h-13.23v13.92h-4.16v-31.52h19.53v3.4h-15.37v10.8h13.23v3.4Z"/>
      <path class="cls-1" d="M74.69,77.17h-4.16v-31.52h4.16v31.52Z"/>
      <path class="cls-1" d="M93.85,64.42h-7.4v12.75h-4.18v-31.52h10.44c3.55,0,6.28.81,8.19,2.42s2.87,3.97,2.87,7.06c0,1.96-.53,3.67-1.59,5.13-1.06,1.46-2.54,2.55-4.43,3.27l7.4,13.38v.26h-4.46l-6.84-12.75ZM86.45,61.02h6.39c2.06,0,3.71-.54,4.93-1.61,1.22-1.07,1.83-2.5,1.83-4.29,0-1.95-.58-3.45-1.74-4.49-1.16-1.04-2.84-1.57-5.03-1.58h-6.37v11.97Z"/>
      <path class="cls-1" d="M118.88,63.12c-3.57-1.02-6.16-2.28-7.78-3.78-1.62-1.49-2.44-3.34-2.44-5.53,0-2.48.99-4.54,2.98-6.16,1.98-1.62,4.56-2.44,7.74-2.44,2.17,0,4.1.42,5.79,1.25,1.7.84,3.01,1.99,3.94,3.46.93,1.47,1.4,3.08,1.4,4.83h-4.18c0-1.91-.61-3.42-1.82-4.51s-2.92-1.64-5.13-1.64c-2.05,0-3.65.45-4.8,1.36-1.15.9-1.72,2.16-1.72,3.76,0,1.29.54,2.38,1.63,3.26,1.09.89,2.94,1.7,5.56,2.44s4.67,1.55,6.15,2.44c1.48.89,2.58,1.92,3.29,3.11.71,1.18,1.07,2.58,1.07,4.18,0,2.55-1,4.6-2.99,6.14-1.99,1.54-4.65,2.31-7.99,2.31-2.17,0-4.19-.42-6.06-1.25-1.88-.83-3.32-1.97-4.34-3.41s-1.53-3.08-1.53-4.92h4.18c0,1.91.7,3.41,2.11,4.51,1.41,1.1,3.29,1.66,5.64,1.66,2.19,0,3.88-.45,5.04-1.34,1.17-.89,1.75-2.11,1.75-3.66s-.54-2.74-1.62-3.58-3.05-1.68-5.89-2.5Z"/>
      <path class="cls-1" d="M157.68,49.05h-10.13v28.12h-4.14v-28.12h-10.11v-3.4h24.38v3.4Z"/>
      <path class="cls-1" d="M195.65,67.17c-.39,3.33-1.62,5.91-3.69,7.72s-4.82,2.72-8.26,2.72c-3.72,0-6.71-1.33-8.95-4-2.24-2.67-3.37-6.24-3.37-10.72v-3.03c0-2.93.52-5.51,1.57-7.73s2.53-3.93,4.45-5.12c1.92-1.19,4.14-1.79,6.67-1.79,3.35,0,6.03.93,8.05,2.8,2.02,1.87,3.2,4.46,3.53,7.76h-4.18c-.36-2.52-1.14-4.34-2.35-5.47-1.21-1.13-2.89-1.69-5.06-1.69-2.66,0-4.74.98-6.25,2.95-1.51,1.96-2.26,4.76-2.26,8.39v3.06c0,3.42.71,6.15,2.14,8.17,1.43,2.02,3.43,3.03,6,3.03,2.31,0,4.08-.52,5.32-1.57,1.23-1.05,2.05-2.87,2.46-5.47h4.18Z"/>
      <path class="cls-1" d="M205.51,73.77h14.94v3.4h-19.12v-31.52h4.18v28.12Z"/>
      <path class="cls-1" d="M243,68.92h-13.21l-2.97,8.25h-4.29l12.04-31.52h3.64l12.06,31.52h-4.27l-3.01-8.25ZM231.05,65.52h10.72l-5.37-14.74-5.35,14.74Z"/>
      <path class="cls-1" d="M263.81,63.12c-3.57-1.02-6.16-2.28-7.78-3.78-1.62-1.49-2.44-3.34-2.44-5.53,0-2.48.99-4.54,2.98-6.16,1.98-1.62,4.56-2.44,7.74-2.44,2.17,0,4.1.42,5.79,1.25,1.7.84,3.01,1.99,3.94,3.46.93,1.47,1.4,3.08,1.4,4.83h-4.18c0-1.91-.61-3.42-1.82-4.51-1.21-1.09-2.92-1.64-5.13-1.64-2.05,0-3.65.45-4.8,1.36-1.15.9-1.72,2.16-1.72,3.76,0,1.29.54,2.38,1.63,3.26,1.09.89,2.94,1.7,5.56,2.44,2.62.74,4.67,1.55,6.15,2.44,1.48.89,2.58,1.92,3.29,3.11.71,1.18,1.07,2.58,1.07,4.18,0,2.55-1,4.6-2.99,6.14-1.99,1.54-4.65,2.31-7.99,2.31-2.17,0-4.19-.42-6.06-1.25-1.88-.83-3.32-1.97-4.34-3.41s-1.53-3.08-1.53-4.92h4.18c0,1.91.7,3.41,2.11,4.51,1.41,1.1,3.29,1.66,5.64,1.66,2.19,0,3.88-.45,5.04-1.34,1.17-.89,1.75-2.11,1.75-3.66s-.54-2.74-1.62-3.58c-1.08-.84-3.04-1.68-5.89-2.5Z"/>
      <path class="cls-1" d="M290.12,63.12c-3.57-1.02-6.16-2.28-7.78-3.78-1.62-1.49-2.44-3.34-2.44-5.53,0-2.48.99-4.54,2.98-6.16,1.98-1.62,4.56-2.44,7.74-2.44,2.17,0,4.09.42,5.79,1.25,1.7.84,3.01,1.99,3.94,3.46.93,1.47,1.4,3.08,1.4,4.83h-4.18c0-1.91-.61-3.42-1.82-4.51-1.21-1.09-2.92-1.64-5.13-1.64-2.05,0-3.65.45-4.8,1.36-1.15.9-1.72,2.16-1.72,3.76,0,1.29.54,2.38,1.63,3.26,1.09.89,2.94,1.7,5.56,2.44s4.67,1.55,6.15,2.44c1.48.89,2.58,1.92,3.29,3.11.71,1.18,1.07,2.58,1.07,4.18,0,2.55-1,4.6-2.99,6.14-1.99,1.54-4.65,2.31-7.99,2.31-2.17,0-4.19-.42-6.06-1.25-1.88-.83-3.32-1.97-4.34-3.41s-1.53-3.08-1.53-4.92h4.18c0,1.91.7,3.41,2.11,4.51,1.41,1.1,3.29,1.66,5.64,1.66,2.19,0,3.88-.45,5.04-1.34s1.75-2.11,1.75-3.66-.54-2.74-1.62-3.58c-1.08-.84-3.05-1.68-5.89-2.5Z"/>
      <path class="cls-1" d="M338.76,47.9h-10.8v29.27h-2.66v-29.27h-10.78v-2.25h24.25v2.25Z"/>
      <path class="cls-1" d="M355.63,64.03h-9.16v13.14h-2.68v-31.52h10.24c3.36,0,5.99.81,7.88,2.44,1.89,1.63,2.84,3.91,2.84,6.83,0,2.02-.59,3.8-1.78,5.34-1.18,1.54-2.77,2.61-4.76,3.2l7.88,13.42v.28h-2.84l-7.62-13.14ZM346.47,61.78h8.16c2.24,0,4.03-.64,5.39-1.91,1.36-1.27,2.04-2.92,2.04-4.94,0-2.23-.71-3.95-2.12-5.18-1.42-1.23-3.4-1.84-5.95-1.84h-7.51v13.88Z"/>
      <path class="cls-1" d="M389.02,68.32h-14.31l-3.25,8.86h-2.79l11.93-31.52h2.53l11.93,31.52h-2.77l-3.27-8.86ZM375.53,66.06h12.64l-6.32-17.17-6.32,17.17Z"/>
      <path class="cls-1" d="M407.31,73.27l.17.67.2-.67,9.92-27.63h2.92l-11.73,31.52h-2.55l-11.74-31.52h2.9l9.92,27.63Z"/>
      <path class="cls-1" d="M442.56,62.06h-14.74v12.86h16.95v2.25h-19.62v-31.52h19.51v2.25h-16.84v11.91h14.74v2.25Z"/>
      <path class="cls-1" d="M453.06,74.92h15.57v2.25h-18.25v-31.52h2.68v29.27Z"/>
    </g>
    <path class="cls-4" d="M9.41,69.01c-.29.67-.63,1.33-.03,2.01,2.2,2.52,4.66,4.64,8.18,6.15-1.52-6.89-.61-13,2.24-18.9-4.72,2.28-8.21,5.78-10.38,10.74Z"/>
    <path class="cls-2" d="M49.13,3.45c-.2-3.69-.51-4.02-3.98-2.86C31.22,5.24,19.3,13.01,9.65,24.11c-4.31,4.95-7.37,10.67-8.83,17.11-.72,3.15-1.33,6.38-.16,10.29,4.5-11.56,13.33-18.15,22.82-24.03,4.96-3.07,10.26-5.49,15.59-7.84,6.73-2.98,10.45-9.14,10.07-16.18Z"/>
    <path class="cls-3" d="M32.29,33.6c-.09-3.39-.3-3.69-2.82-2.55-3.31,1.63-7.12,3.88-11.14,7.02-2.73,2.13-5.1,4.32-7.14,6.41-3.13,3.3-5.81,7.1-7.24,12.11-.52,1.82-.74,3.42-.54,5.17.25,2.2,1.07,3.79,1.58,4.64.71-2.12,2.03-5.31,4.44-8.3,1.98-2.45,3.86-3.74,6.13-5.26,4.61-3.1,5.62-3.08,10.11-5.73,4.21-2.48,6.58-6.58,6.62-12.58,0-.31,0-.61,0-.92Z"/>
  </g>
</svg>