<?xml version="1.0" encoding="UTF-8"?>
<svg xmlns="http://www.w3.org/2000/svg" version="1.1" viewBox="0 0 841.89 595.28">
  <defs>
    <style>
      .cls-1 {
        fill: #09284c;
      }

      .cls-2 {
        fill: #e0ae00;
      }
    </style>
  </defs>
  <!-- Generator: Adobe Illustrator 28.6.0, SVG Export Plug-In . SVG Version: 1.2.0 Build 709)  -->
  <g>
    <g id="Lager_1">
      <g>
        <path class="cls-1" d="M119.38,251.2h33.6c19.62,0,31.49,11.63,31.49,28.43v.23c0,19.03-14.8,28.9-33.25,28.9h-13.75v24.67h-18.09v-82.24ZM151.81,292.67c9.05,0,14.33-5.4,14.33-12.45v-.24c0-8.11-5.64-12.45-14.69-12.45h-13.98v25.14h14.33Z"/>
        <path class="cls-1" d="M189.29,292.55v-.24c0-23.38,18.45-42.53,43.83-42.53s43.59,18.92,43.59,42.3v.23c0,23.38-18.45,42.53-43.82,42.53s-43.59-18.92-43.59-42.3ZM257.79,292.55v-.24c0-14.1-10.34-25.85-24.91-25.85s-24.67,11.51-24.67,25.61v.23c0,14.1,10.34,25.85,24.91,25.85s24.67-11.51,24.67-25.61Z"/>
        <path class="cls-1" d="M279.65,321.46l10.69-12.81c7.4,6.11,15.16,9.99,24.56,9.99,7.4,0,11.87-2.94,11.87-7.75v-.23c0-4.58-2.82-6.93-16.57-10.46-16.57-4.23-27.26-8.81-27.26-25.14v-.24c0-14.92,11.98-24.79,28.79-24.79,11.98,0,22.21,3.76,30.55,10.46l-9.4,13.63c-7.28-5.05-14.45-8.11-21.38-8.11s-10.57,3.17-10.57,7.17v.23c0,5.41,3.53,7.17,17.74,10.81,16.68,4.35,26.08,10.34,26.08,24.67v.23c0,16.33-12.45,25.5-30.2,25.5-12.45,0-25.03-4.35-34.9-13.16Z"/>
        <path class="cls-1" d="M354.26,251.2h62.04v16.1h-44.06v16.68h38.77v16.1h-38.77v17.27h44.65v16.1h-62.62v-82.24Z"/>
        <path class="cls-1" d="M430.87,251.2h18.1v82.23h-18.1v-82.23Z"/>
        <path class="cls-1" d="M463.65,251.2h32.08c25.85,0,43.71,17.74,43.71,40.89v.23c0,23.15-17.86,41.12-43.71,41.12h-32.08v-82.24ZM481.75,267.53v49.58h13.98c14.8,0,24.79-9.99,24.79-24.56v-.24c0-14.57-9.99-24.79-24.79-24.79h-13.98Z"/>
        <path class="cls-1" d="M546.02,292.55v-.24c0-23.38,18.44-42.53,43.82-42.53s43.59,18.92,43.59,42.3v.23c0,23.38-18.45,42.53-43.83,42.53s-43.59-18.92-43.59-42.3ZM614.52,292.55v-.24c0-14.1-10.34-25.85-24.91-25.85s-24.67,11.51-24.67,25.61v.23c0,14.1,10.34,25.85,24.91,25.85s24.68-11.51,24.68-25.61Z"/>
        <path class="cls-1" d="M643.66,251.2h16.68l38.54,50.64v-50.64h17.86v82.24h-15.39l-39.83-52.28v52.28h-17.86v-82.24Z"/>
        <path class="cls-2" d="M116.74,391.21v-.24c0-23.38,17.62-42.53,42.89-42.53,15.51,0,24.79,5.17,32.43,12.69l-11.51,13.28c-6.35-5.76-12.81-9.28-21.03-9.28-13.86,0-23.85,11.51-23.85,25.61v.23c0,14.1,9.75,25.85,23.85,25.85,9.4,0,15.16-3.76,21.62-9.64l11.51,11.63c-8.46,9.05-17.86,14.69-33.72,14.69-24.2,0-42.18-18.68-42.18-42.3Z"/>
        <path class="cls-2" d="M222.6,349.85h37.6c10.46,0,18.56,2.94,23.97,8.34,4.58,4.58,7.05,11.04,7.05,18.8v.23c0,13.28-7.17,21.62-17.62,25.5l20.09,29.37h-21.15l-17.62-26.32h-14.22v26.32h-18.09v-82.24ZM259.03,389.8c8.81,0,13.86-4.7,13.86-11.63v-.23c0-7.76-5.4-11.75-14.22-11.75h-17.98v23.62h18.33Z"/>
        <path class="cls-2" d="M322.52,396.85v-47h18.09v46.53c0,13.39,6.7,20.33,17.74,20.33s17.74-6.7,17.74-19.74v-47.11h18.09v46.41c0,24.91-13.98,37.13-36.07,37.13s-35.6-12.34-35.6-36.54Z"/>
        <path class="cls-2" d="M430.87,349.79h18.1v82.45h-18.1v-82.45Z"/>
        <path class="cls-2" d="M476.65,420.11l10.69-12.81c7.4,6.11,15.16,9.99,24.56,9.99,7.4,0,11.87-2.94,11.87-7.75v-.23c0-4.58-2.82-6.93-16.57-10.46-16.57-4.23-27.26-8.81-27.26-25.14v-.24c0-14.92,11.98-24.79,28.79-24.79,11.98,0,22.2,3.76,30.55,10.46l-9.4,13.63c-7.29-5.05-14.45-8.11-21.38-8.11s-10.57,3.17-10.57,7.17v.23c0,5.41,3.53,7.17,17.74,10.81,16.68,4.35,26.08,10.34,26.08,24.67v.23c0,16.33-12.45,25.5-30.2,25.5-12.46,0-25.03-4.35-34.9-13.16Z"/>
        <path class="cls-2" d="M569.1,349.85h62.04v16.1h-44.06v16.68h38.77v16.1h-38.77v17.27h44.65v16.1h-62.62v-82.24Z"/>
        <path class="cls-2" d="M654.27,420.11l10.69-12.81c7.4,6.11,15.16,9.99,24.56,9.99,7.4,0,11.87-2.94,11.87-7.75v-.23c0-4.58-2.82-6.93-16.57-10.46-16.57-4.23-27.26-8.81-27.26-25.14v-.24c0-14.92,11.98-24.79,28.79-24.79,11.98,0,22.2,3.76,30.55,10.46l-9.4,13.63c-7.29-5.05-14.45-8.11-21.38-8.11s-10.57,3.17-10.57,7.17v.23c0,5.41,3.53,7.17,17.74,10.81,16.68,4.35,26.08,10.34,26.08,24.67v.23c0,16.33-12.46,25.5-30.2,25.5-12.46,0-25.03-4.35-34.9-13.16Z"/>
        <path class="cls-1" d="M716.82,177.11v-11.31c0-.43-.31-.27-.31-.27-65.17,28.44-192.13,78.44-315.47-9.92-159.28-114.11-274.75,15.45-281,22.59-.68.78-.65,1.24-.65,1.24v11.39c0,.29.12.19.12.19,0,0,114.21-120.17,278.22-11.61,135.68,89.81,306.81,5.27,318.92-1.92,0,0,.17-.08.17-.37Z"/>
      </g>
    </g>
  </g>
</svg>