<?xml version="1.0" encoding="UTF-8"?>
<svg id="Layer_1" xmlns="http://www.w3.org/2000/svg" version="1.1" viewBox="0 0 599.5 324.7">
  <!-- Generator: Adobe Illustrator 29.5.1, SVG Export Plug-In . SVG Version: 2.1.0 Build 141)  -->
  <defs>
    <style>
      .st0 {
        fill: #e0ae00;
      }

      .st1 {
        fill: #09284c;
      }
    </style>
  </defs>
  <g id="Lager_1">
    <g>
      <path class="st1" d="M-.5,142.4h33.6c19.6,0,31.5,11.6,31.5,28.4v.2c0,19-14.8,28.9-33.2,28.9h-13.8v24.7H-.5v-82.2h0ZM31.9,183.9c9.1,0,14.3-5.4,14.3-12.5v-.2c0-8.1-5.6-12.5-14.7-12.5h-14v25.1h14.3Z"/>
      <path class="st1" d="M69.4,183.7v-.2c0-23.4,18.4-42.5,43.8-42.5s43.6,18.9,43.6,42.3v.2c0,23.4-18.5,42.5-43.8,42.5s-43.6-18.9-43.6-42.3h0ZM137.9,183.7v-.2c0-14.1-10.3-25.9-24.9-25.9s-24.7,11.5-24.7,25.6v.2c0,14.1,10.3,25.9,24.9,25.9s24.7-11.5,24.7-25.6h0Z"/>
      <path class="st1" d="M159.8,212.6l10.7-12.8c7.4,6.1,15.2,10,24.6,10s11.9-2.9,11.9-7.8v-.2c0-4.6-2.8-6.9-16.6-10.5-16.6-4.2-27.3-8.8-27.3-25.1v-.2c0-14.9,12-24.8,28.8-24.8s22.2,3.8,30.5,10.5l-9.4,13.6c-7.3-5-14.5-8.1-21.4-8.1s-10.6,3.2-10.6,7.2v.2c0,5.4,3.5,7.2,17.7,10.8,16.7,4.4,26.1,10.3,26.1,24.7v.2c0,16.3-12.5,25.5-30.2,25.5s-25-4.4-34.9-13.2h0Z"/>
      <path class="st1" d="M234.4,142.4h62v16.1h-44.1v16.7h38.8v16.1h-38.8v17.3h44.6v16.1h-62.6v-82.2h0Z"/>
      <path class="st1" d="M311,142.4h18.1v82.2h-18.1v-82.2h0Z"/>
      <path class="st1" d="M343.8,142.4h32.1c25.8,0,43.7,17.7,43.7,40.9v.2c0,23.1-17.9,41.1-43.7,41.1h-32.1v-82.2h0ZM361.9,158.7v49.6h14c14.8,0,24.8-10,24.8-24.6v-.2c0-14.6-10-24.8-24.8-24.8h-14Z"/>
      <path class="st1" d="M426.1,183.7v-.2c0-23.4,18.4-42.5,43.8-42.5s43.6,18.9,43.6,42.3v.2c0,23.4-18.5,42.5-43.8,42.5s-43.6-18.9-43.6-42.3h0ZM494.6,183.7v-.2c0-14.1-10.3-25.9-24.9-25.9s-24.7,11.5-24.7,25.6v.2c0,14.1,10.3,25.9,24.9,25.9s24.7-11.5,24.7-25.6h0Z"/>
      <path class="st1" d="M523.8,142.4h16.7l38.5,50.6v-50.6h17.9v82.2h-15.4l-39.8-52.3v52.3h-17.9v-82.2h0Z"/>
      <path class="st0" d="M-3.1,282.4v-.2c0-23.4,17.6-42.5,42.9-42.5s24.8,5.2,32.4,12.7l-11.5,13.3c-6.4-5.8-12.8-9.3-21-9.3-13.9,0-23.9,11.5-23.9,25.6v.2c0,14.1,9.8,25.9,23.9,25.9s15.2-3.8,21.6-9.6l11.5,11.6c-8.5,9-17.9,14.7-33.7,14.7-24.2,0-42.2-18.7-42.2-42.3h0Z"/>
      <path class="st0" d="M102.7,241h37.6c10.5,0,18.6,2.9,24,8.3,4.6,4.6,7,11,7,18.8v.2c0,13.3-7.2,21.6-17.6,25.5l20.1,29.4h-21.1l-17.6-26.3h-14.2v26.3h-18.1v-82.2h0ZM139.2,281c8.8,0,13.9-4.7,13.9-11.6v-.2c0-7.8-5.4-11.8-14.2-11.8h-18v23.6h18.3Z"/>
      <path class="st0" d="M202.6,288v-47h18.1v46.5c0,13.4,6.7,20.3,17.7,20.3s17.7-6.7,17.7-19.7v-47.1h18.1v46.4c0,24.9-14,37.1-36.1,37.1s-35.6-12.3-35.6-36.5h0Z"/>
      <path class="st0" d="M311,241h18.1v82.4h-18.1v-82.5h0Z"/>
      <path class="st0" d="M356.8,311.3l10.7-12.8c7.4,6.1,15.2,10,24.6,10s11.9-2.9,11.9-7.8v-.2c0-4.6-2.8-6.9-16.6-10.5-16.6-4.2-27.3-8.8-27.3-25.1v-.2c0-14.9,12-24.8,28.8-24.8s22.2,3.8,30.6,10.5l-9.4,13.6c-7.3-5-14.5-8.1-21.4-8.1s-10.6,3.2-10.6,7.2v.2c0,5.4,3.5,7.2,17.7,10.8,16.7,4.4,26.1,10.3,26.1,24.7v.2c0,16.3-12.5,25.5-30.2,25.5s-25-4.4-34.9-13.2h0Z"/>
      <path class="st0" d="M449.2,241h62v16.1h-44.1v16.7h38.8v16.1h-38.8v17.3h44.7v16.1h-62.6v-82.2h0Z"/>
      <path class="st0" d="M534.4,311.3l10.7-12.8c7.4,6.1,15.2,10,24.6,10s11.9-2.9,11.9-7.8v-.2c0-4.6-2.8-6.9-16.6-10.5-16.6-4.2-27.3-8.8-27.3-25.1v-.2c0-14.9,12-24.8,28.8-24.8s22.2,3.8,30.5,10.5l-9.4,13.6c-7.3-5-14.5-8.1-21.4-8.1s-10.6,3.2-10.6,7.2v.2c0,5.4,3.5,7.2,17.7,10.8,16.7,4.4,26.1,10.3,26.1,24.7v.2c0,16.3-12.5,25.5-30.2,25.5s-25-4.4-34.9-13.2h0Z"/>
      <path class="st1" d="M596.9,68.3v-11.3c0-.4-.3-.3-.3-.3-65.2,28.4-192.1,78.4-315.5-9.9C121.9-67.3,6.4,62.2.2,69.4c-.7.8-.7,1.2-.7,1.2v11.4c0,.3.1.2.1.2,0,0,114.2-120.2,278.2-11.6,135.7,89.8,306.8,5.3,318.9-1.9,0,0,.2,0,.2-.4h0Z"/>
    </g>
  </g>
</svg>