<?xml version="1.0" encoding="UTF-8"?>
<svg id="Layer_2" data-name="Layer 2" xmlns="http://www.w3.org/2000/svg" viewBox="0 0 30.46 36.19">
  <defs>
    <style>
      .cls-1 {
        fill: #231f20;
      }

      .cls-2 {
        fill: #3953a4;
      }
    </style>
  </defs>
  <g id="Layer_1-2" data-name="Layer 1">
    <g>
      <path class="cls-2" d="M.92,2.17h3.81c2.82,0,4.93,2.07,4.93,4.83s-2.12,4.83-4.93,4.83H.92V2.17ZM3.1,4.21v5.58h1.58c1.58,0,2.76-1.21,2.76-2.79s-1.18-2.79-2.76-2.79h-1.58Z"/>
      <path class="cls-2" d="M11.05,2.17h2.17v9.67h-2.17V2.17Z"/>
      <path class="cls-2" d="M15.06,2.17h2.18l4.02,5.91V2.17h2.17v9.67h-2.2l-4.01-5.91v5.91h-2.17V2.17Z"/>
      <path class="cls-1" d="M2.52,16.51H.32v-.58h5.02v.58h-2.2v6.32h-.62v-6.32Z"/>
      <path class="cls-1" d="M5.8,17.73h.58v1.11c.38-.74,1.08-1.19,1.98-1.19h.13v.6h-.13c-1.21,0-1.98.76-1.98,1.94v2.64h-.58v-5.1Z"/>
      <path class="cls-1" d="M8.84,20.28c0-1.52,1.11-2.67,2.59-2.67.98,0,1.77.5,2.2,1.29v-1.17h.58v5.1h-.58v-1.17c-.43.79-1.22,1.29-2.2,1.29-1.48,0-2.59-1.15-2.59-2.67ZM13.63,20.28c0-1.2-.9-2.11-2.1-2.11s-2.09.91-2.09,2.11.9,2.11,2.09,2.11,2.1-.91,2.1-2.11Z"/>
      <path class="cls-1" d="M15.21,17.73h.67l1.97,4.42,1.97-4.42h.65l-2.32,5.1h-.62l-2.32-5.1Z"/>
      <path class="cls-1" d="M20.85,20.28c0-1.52,1.16-2.67,2.69-2.67s2.7,1.15,2.7,2.67c0,.08,0,.17-.02.24h-4.76c.11,1.1.97,1.89,2.12,1.89.86,0,1.6-.44,1.92-1.1h.65c-.39.98-1.39,1.64-2.58,1.64-1.56,0-2.72-1.15-2.72-2.67ZM21.46,20h4.17c-.1-1.02-.94-1.85-2.09-1.85s-1.95.77-2.08,1.85Z"/>
      <path class="cls-1" d="M27.48,15.63h.58v7.2h-.58v-7.2Z"/>
      <path class="cls-1" d="M.51,30.38c0-2.03,1.55-3.57,3.59-3.57,1.53,0,2.79.85,3.29,2.11h-.69c-.48-.92-1.44-1.51-2.6-1.51-1.68,0-2.96,1.27-2.96,2.97s1.28,2.97,2.96,2.97c1.54,0,2.73-1.04,2.87-2.5h-2.6v-.56h3.24v.2c0,1.98-1.5,3.46-3.51,3.46s-3.59-1.54-3.59-3.57Z"/>
      <path class="cls-1" d="M8.91,28.73h.58v1.11c.38-.74,1.08-1.19,1.98-1.19h.13v.6h-.13c-1.21,0-1.98.76-1.98,1.94v2.64h-.58v-5.1Z"/>
      <path class="cls-1" d="M11.94,31.28c0-1.52,1.16-2.67,2.7-2.67s2.69,1.15,2.69,2.67-1.16,2.67-2.69,2.67-2.7-1.15-2.7-2.67ZM16.73,31.28c0-1.2-.89-2.11-2.09-2.11s-2.1.91-2.1,2.11.9,2.11,2.1,2.11,2.09-.91,2.09-2.11Z"/>
      <path class="cls-1" d="M18.52,31.9v-3.17h.58v3.01c0,.99.65,1.65,1.64,1.65s1.72-.67,1.72-1.67v-2.99h.58v5.1h-.58v-.89c-.38.64-1.04,1.01-1.89,1.01-1.23,0-2.05-.81-2.05-2.05Z"/>
      <path class="cls-1" d="M24.62,28.73h.58v1.17c.43-.79,1.23-1.29,2.2-1.29,1.49,0,2.6,1.15,2.6,2.67s-1.11,2.67-2.6,2.67c-.97,0-1.77-.5-2.2-1.29v3.07h-.58v-7ZM29.4,31.28c0-1.2-.9-2.11-2.1-2.11s-2.1.91-2.1,2.11.9,2.11,2.1,2.11,2.1-.91,2.1-2.11Z"/>
    </g>
  </g>
</svg>